<svg width="626" height="78" viewBox="0 0 626 78" fill="none" xmlns="http://www.w3.org/2000/svg">
<path fill-rule="evenodd" clip-rule="evenodd" d="M62.5994 7.90088C77.1857 -3.64657 111.524 -4.55822 109.604 19.0776H109.61C107.878 40.72 86.3021 61.9916 64.1188 77.1857H0C43.7588 60.7761 76.2983 28.1211 62.5994 7.90088ZM113.347 42.5433C107.574 54.6985 96.4821 66.3675 82.0477 77.1857H115.779C120.033 73.5391 127.63 64.7266 127.63 56.5218C127.63 48.6209 122.768 44.0627 113.347 42.5433Z" fill="white"/>
<path d="M201.485 25.7448C201.345 27.7929 201.345 31.0019 201.345 33.8705C201.345 36.7391 201.345 40.0879 201.485 42.3427C195.748 42.209 190.071 42.209 184.814 42.1361C184.814 58.3329 184.881 73.3628 185.088 77.0519C182.079 76.8453 177.162 77.0519 173.674 77.0519C170.185 77.0519 165.408 76.8453 162.193 77.0519C162.4 73.4297 162.534 58.3998 162.6 42.1361C157.337 42.2029 151.667 42.2029 145.863 42.3427C145.93 40.0879 145.93 36.6723 145.93 33.8705C145.93 31.0687 145.93 27.8658 145.863 25.7448H201.485Z" fill="white"/>
<path d="M247.061 77.1796C246.787 75.332 246.034 71.8495 244.873 67.6803H223.146C221.985 71.7097 221.097 75.1253 220.751 77.1796H197.863C203.673 64.1309 214.74 33.4572 217.129 25.8724H252.178C254.707 33.5241 265.914 63.9912 271.991 77.1796H247.049H247.061ZM241.591 56.4063C240.157 51.7569 238.656 47.0468 237.148 42.8775C235.781 39.5288 234.827 36.4535 234.073 34.065C233.319 36.4596 232.298 39.4619 230.998 43.0173C229.63 47.1197 228.062 51.763 226.622 56.3395C229.357 56.4063 231.952 56.4063 234 56.4063H241.585H241.591Z" fill="white"/>
<path d="M276.781 77.1796C276.987 69.5279 276.987 62.3502 276.987 51.4895C276.987 40.6288 276.987 33.4572 276.781 25.8724H298.648C298.441 33.3904 298.441 40.489 298.441 51.4227C298.441 62.3563 298.508 69.461 298.648 77.1796H276.781Z" fill="white"/>
<path d="M331.236 25.8724C331.029 29.7013 330.962 40.3493 330.895 51.6962V60.6485C337.453 60.6485 346.339 60.6485 353.99 60.4418C353.924 63.1768 353.857 65.9785 353.857 68.7803C353.857 71.5821 353.924 74.3839 353.99 77.1857H308.895C308.961 72.7429 309.168 62.4292 309.168 51.4956C309.168 39.9481 309.101 30.7952 308.895 25.8785H331.236V25.8724Z" fill="white"/>
<path d="M448.552 25.8724C444.523 38.0337 436.184 69.461 434.203 77.1796C431.061 77.1127 426.618 77.1796 421.561 77.1796C414.864 77.1796 409.74 77.1127 407.826 77.1796C406.939 73.0103 404.89 63.8575 403.11 55.1786C402.429 51.4227 401.742 47.1866 401.195 43.3577H400.648C400.034 47.2534 399.281 51.6962 398.46 55.3853C396.546 63.4503 394.358 72.5363 393.27 77.1796H381.929C375.098 77.1796 371.062 77.1127 368.947 77.1796C366.486 68.2273 358.834 38.1005 354.464 25.8724H377.626C378.033 29.4946 380.562 43.7709 382.549 53.1973C383.163 56.2726 383.71 59.281 384.257 61.7364H384.664C385.211 59.2081 385.892 56.1997 386.579 53.0575C388.493 43.6312 391.222 30.856 391.769 25.8663C394.504 25.9332 401.062 25.8663 404.617 25.8663C407.899 25.8663 413.296 25.9332 415.824 25.8663C416.438 30.4428 418.559 43.6251 420.814 53.331C421.701 56.6798 422.248 59.6153 422.728 62.0099H423.135C423.543 59.5484 424.023 56.6798 424.776 53.331C426.691 43.6312 429.079 30.856 429.766 25.8663H448.558L448.552 25.8724Z" fill="white"/>
<path d="M453.815 77.1796C454.022 69.5279 454.022 62.3502 454.022 51.4895C454.022 40.6288 454.022 33.4572 453.815 25.8724H475.682C475.476 33.3904 475.476 40.489 475.476 51.4227C475.476 62.3563 475.543 69.461 475.682 77.1796H453.815Z" fill="white"/>
<path d="M551.112 25.8724C550.978 31.3361 550.838 40.5559 550.838 51.4227C550.838 62.2894 550.838 70.555 551.045 77.1796H528.497C525.835 72.7368 516.542 62.5568 510.045 55.1786C507.997 52.2431 506.016 49.3016 504.442 46.3661C504.782 50.5353 504.922 54.4311 505.056 58.4605C505.189 67.8869 505.189 74.4507 505.329 77.1796H486.13C486.197 70.2754 486.337 62.4231 486.337 51.4895C486.337 40.5559 486.403 32.7765 486.13 25.8724H510.592C512.166 29.0145 522.96 40.9692 528.77 48.2076C530.338 50.5293 531.913 53.0575 533.146 55.7256L533.28 55.6587C532.94 51.9028 532.8 48.3474 532.733 45.339C532.733 37.6873 532.526 29.6283 532.186 25.8724H551.112Z" fill="white"/>
<path d="M595.661 25.8663C617.661 25.8663 626 31.95 626 50.122C626 69.9351 618.415 77.1127 595.387 77.1127L561.359 77.1796C561.565 70.008 561.632 62.4231 561.632 51.5564C561.632 40.6896 561.565 32.7036 561.359 25.8724H595.661V25.8663ZM604.54 50.669C604.54 41.2427 601.191 39.1216 593.539 39.1216C589.783 39.1216 586.295 39.1884 582.812 39.3282C582.746 43.2908 582.679 47.5938 582.679 51.6293C582.679 56.2787 582.679 59.7611 582.746 62.6298C586.435 62.9701 589.443 62.9033 593.473 62.9033C600.991 62.9033 604.54 60.4419 604.54 50.6751V50.669Z" fill="white"/>
</svg>
